<svg width="375" height="270" viewBox="0 0 375 270" fill="none" xmlns="http://www.w3.org/2000/svg">
<g clip-path="url(#clip0)">
<path d="M375 270C355.677 267.168 337.094 264.726 319.252 262.675L326.307 251.249C323.929 250.546 313.478 257.06 313.478 257.06L322.739 223.841C310.777 224.994 304.689 258.928 304.689 258.928L291.326 247.384L297.794 260.323C243.185 254.682 196.021 252.466 156.351 252.21L162.39 242.431C160.012 241.728 149.561 248.241 149.561 248.241L158.822 215.022C146.86 216.176 140.772 250.11 140.772 250.11L127.409 238.566L134.26 252.27C101.003 252.674 73.8824 254.45 52.9491 256.522C59.0578 241.272 79.8042 226.837 79.8042 226.837C63.9614 230.711 55.6503 237.288 51.3071 243.435C50.9751 224.569 53.2085 189.605 69.8015 150.96C69.8015 150.96 37.0474 210.511 41.2198 250.605L41.7186 257.724C13.9573 260.926 -1.52588e-05 264.326 -1.52588e-05 264.326L375 270Z" fill="#3F3D56"/>
<path d="M199.401 10.8144V251.455C199.398 254.321 198.258 257.07 196.232 259.096C194.206 261.122 191.459 262.261 188.595 262.262H90.9765C89.5574 262.264 88.1517 261.987 86.84 261.444C85.5283 260.902 84.3364 260.106 83.3326 259.103C82.3287 258.099 81.5327 256.906 80.9901 255.594C80.4475 254.282 80.169 252.875 80.1705 251.455V10.8144C80.1703 9.39417 80.4498 7.98786 80.9928 6.67575C81.5358 5.36364 82.3318 4.17143 83.3352 3.1672C84.3387 2.16297 85.53 1.36639 86.8411 0.822965C88.1522 0.279537 89.5574 -9.94796e-05 90.9765 2.33956e-05H105.585V1.8748C105.585 4.23631 106.522 6.50123 108.19 8.17142C109.858 9.8416 112.121 10.7803 114.481 10.781H164.13C166.029 10.785 167.879 10.1757 169.405 9.04353C169.713 8.81901 170.006 8.57341 170.28 8.30847C171.149 7.478 171.841 6.47952 172.313 5.3736C172.785 4.26767 173.027 3.07734 173.025 1.8748V2.33956e-05H188.595C190.014 -0.000411714 191.419 0.279013 192.73 0.822331C194.042 1.36565 195.233 2.16221 196.237 3.1665C197.24 4.17079 198.036 5.36313 198.579 6.67538C199.122 7.98763 199.401 9.39408 199.401 10.8144Z" fill="#3F3D56"/>
<path d="M107.366 42.6931C108.8 42.6931 109.962 41.5296 109.962 40.0944C109.962 38.6591 108.8 37.4957 107.366 37.4957C105.931 37.4957 104.769 38.6591 104.769 40.0944C104.769 41.5296 105.931 42.6931 107.366 42.6931Z" fill="#F2F2F2"/>
<path d="M170.28 8.30846C170.006 8.5734 169.713 8.81901 169.405 9.04353C172.585 14.6444 176.894 19.5228 182.057 23.3694C187.221 27.216 193.127 29.9468 199.401 31.3887V30.2304C193.296 28.7893 187.557 26.0971 182.545 22.3239C177.532 18.5507 173.356 13.7785 170.28 8.30846Z" fill="#5AED8E"/>
<path d="M148.093 10.7809H146.876C151.196 21.7645 158.32 31.4213 167.537 38.7862C176.754 46.1511 187.741 50.9661 199.401 52.7501V51.5992C188.045 49.8344 177.344 45.1432 168.348 37.9866C159.353 30.8301 152.372 21.4544 148.093 10.7809Z" fill="#5AED8E"/>
<path d="M125.68 10.7809H124.508C134.312 44.8389 163.896 70.1911 199.401 74.3082V73.1759C164.512 69.0774 135.436 44.2077 125.68 10.7809Z" fill="#5AED8E"/>
<path d="M98.8333 59.333H98.1574V58.6566H98.0257V59.333H97.3494V59.4651H98.0257V60.1416H98.1574V59.4651H98.8333V59.333Z" fill="#F2F2F2"/>
<path d="M144.461 25.5498H143.785V24.8734H143.654V25.5498H142.977V25.6819H143.654V26.3583H143.785V25.6819H144.461V25.5498Z" fill="#F2F2F2"/>
<path d="M105.511 86.0626H104.835V85.3862H104.703V86.0626H104.027V86.1947H104.703V86.8712H104.835V86.1947H105.511V86.0626Z" fill="#F2F2F2"/>
<path d="M136.671 66.3866H135.995V65.7102H135.864V66.3866H135.187V66.5188H135.864V67.1952H135.995V66.5188H136.671V66.3866Z" fill="#F2F2F2"/>
<path d="M181.186 78.6377H180.51V77.9613H180.379V78.6377H179.702V78.7699H180.379V79.4463H180.51V78.7699H181.186V78.6377Z" fill="#F2F2F2"/>
<path d="M173.396 47.8905C174.216 47.8905 174.88 47.2257 174.88 46.4055C174.88 45.5854 174.216 44.9206 173.396 44.9206C172.577 44.9206 171.913 45.5854 171.913 46.4055C171.913 47.2257 172.577 47.8905 173.396 47.8905Z" fill="#FF6584"/>
<path d="M120.238 81.2282L119.396 81.3582C119.659 83.0436 119.867 84.7662 120.019 86.4702L120.868 86.3959C120.716 84.6697 120.505 82.9323 120.238 81.2282Z" fill="#E6E6E6"/>
<path d="M117.934 71.0784L117.118 71.3271C117.611 72.9606 118.053 74.6349 118.428 76.3018L119.262 76.1125C118.88 74.427 118.431 72.7342 117.934 71.0784Z" fill="#E6E6E6"/>
<path d="M114.258 61.3444L113.483 61.7008C114.195 63.2563 114.863 64.8526 115.467 66.449L116.265 66.1483C115.653 64.5334 114.981 62.9147 114.258 61.3444Z" fill="#E6E6E6"/>
<path d="M109.287 52.2192L108.567 52.6758C109.484 54.1162 110.363 55.6087 111.179 57.1048L111.928 56.6964C111.105 55.1818 110.214 53.6745 109.287 52.2192Z" fill="#E6E6E6"/>
<path d="M103.107 43.8551L102.458 44.4082C103.563 45.7076 104.639 47.0664 105.655 48.44L106.338 47.9314C105.314 46.5429 104.227 45.1693 103.107 43.8551Z" fill="#E6E6E6"/>
<path d="M95.8435 36.4079L95.276 37.0428C96.5521 38.1825 97.8022 39.3816 98.993 40.603L99.6051 40.0053C98.3994 38.769 97.1345 37.5588 95.8435 36.4079Z" fill="#E6E6E6"/>
<path d="M87.6379 30.0151L87.1594 30.7205C88.5764 31.6745 89.9787 32.6918 91.3252 33.7424L91.852 33.0704C90.4869 32.0087 89.0698 30.9803 87.6379 30.0151Z" fill="#E6E6E6"/>
<path d="M80.1705 25.575V26.5403C81.0571 27.0043 81.9363 27.4907 82.7969 27.9881L83.2235 27.2493C82.2219 26.6702 81.2042 26.1121 80.1705 25.575Z" fill="#E6E6E6"/>
<path d="M120.045 161.418C120.183 160.588 120.31 159.74 120.421 158.899L121.267 159.011C121.154 159.862 121.026 160.719 120.886 161.558L120.045 161.418Z" fill="#E6E6E6"/>
<path d="M117.668 171.434L118.483 171.688C118.994 170.038 119.457 168.348 119.858 166.665L119.027 166.468C118.63 168.133 118.175 169.802 117.668 171.434Z" fill="#E6E6E6"/>
<path d="M113.943 181.024L114.717 181.387C115.452 179.825 116.141 178.215 116.766 176.604L115.97 176.293C115.353 177.887 114.671 179.479 113.943 181.024Z" fill="#E6E6E6"/>
<path d="M108.93 190.02L109.646 190.485C110.589 189.038 111.494 187.537 112.337 186.027L111.593 185.609C110.761 187.102 109.864 188.586 108.93 190.02Z" fill="#E6E6E6"/>
<path d="M102.729 198.239L103.376 198.8C104.511 197.49 105.611 196.127 106.654 194.749L105.97 194.238C104.942 195.6 103.853 196.946 102.729 198.239Z" fill="#E6E6E6"/>
<path d="M95.4677 205.532L96.0294 206.174C97.3338 205.035 98.6093 203.834 99.8282 202.613L99.2248 202.008C98.0198 203.217 96.7553 204.402 95.4677 205.532Z" fill="#E6E6E6"/>
<path d="M87.2869 211.766L87.7581 212.48C89.1984 211.528 90.6289 210.514 92.0012 209.468L91.4855 208.787C90.1263 209.823 88.7134 210.826 87.2869 211.766Z" fill="#E6E6E6"/>
<path d="M83.3199 215.192C82.2887 215.775 81.2351 216.339 80.1705 216.873V215.916C81.0905 215.448 82.003 214.954 82.897 214.453L83.3199 215.192Z" fill="#E6E6E6"/>
<path d="M120.295 91.7366L121.148 91.721C121.164 92.5827 121.165 93.449 121.152 94.296L120.299 94.2827C120.312 93.4453 120.311 92.5887 120.295 91.7366Z" fill="#E6E6E6"/>
<path d="M83.9172 111.979H171.171C177.664 111.979 183.891 114.561 188.483 119.156C193.074 123.751 195.654 129.983 195.654 136.481V139.725H108.4C101.907 139.725 95.6797 137.143 91.0882 132.548C86.4967 127.953 83.9172 121.721 83.9172 115.222V111.979Z" fill="white"/>
<path d="M141.824 261.921C141.739 261.782 139.731 258.427 139.036 251.462C138.397 245.072 138.808 234.301 144.389 219.276C154.964 190.812 141.952 167.846 141.82 167.617L142.461 167.245C142.495 167.303 145.853 173.158 147.836 182.482C150.457 194.844 149.502 207.697 145.085 219.535C134.529 247.95 142.377 261.401 142.457 261.534L141.824 261.921Z" fill="#F2F2F2"/>
<path d="M137.689 165.946C140.352 165.946 142.511 163.785 142.511 161.12C142.511 158.455 140.352 156.294 137.689 156.294C135.026 156.294 132.867 158.455 132.867 161.12C132.867 163.785 135.026 165.946 137.689 165.946Z" fill="#5AED8E"/>
<path d="M152.898 183.766C155.562 183.766 157.721 181.605 157.721 178.94C157.721 176.274 155.562 174.114 152.898 174.114C150.235 174.114 148.076 176.274 148.076 178.94C148.076 181.605 150.235 183.766 152.898 183.766Z" fill="#F2F2F2"/>
<path d="M142.511 195.646C145.175 195.646 147.334 193.485 147.334 190.82C147.334 188.154 145.175 185.993 142.511 185.993C139.848 185.993 137.689 188.154 137.689 190.82C137.689 193.485 139.848 195.646 142.511 195.646Z" fill="#5AED8E"/>
<path d="M155.124 205.669C157.787 205.669 159.947 203.509 159.947 200.843C159.947 198.178 157.787 196.017 155.124 196.017C152.461 196.017 150.302 198.178 150.302 200.843C150.302 203.509 152.461 205.669 155.124 205.669Z" fill="#5AED8E"/>
<path d="M138.802 221.262C141.465 221.262 143.624 219.101 143.624 216.435C143.624 213.77 141.465 211.609 138.802 211.609C136.138 211.609 133.979 213.77 133.979 216.435C133.979 219.101 136.138 221.262 138.802 221.262Z" fill="#F2F2F2"/>
<path d="M144.737 262.098C144.737 262.098 139.915 250.219 154.382 241.309L144.737 262.098Z" fill="#F2F2F2"/>
<path d="M138.806 261.883C138.806 261.883 136.612 249.25 119.625 249.358L138.806 261.883Z" fill="#F2F2F2"/>
<path opacity="0.2" d="M119.607 155.551C135.997 155.551 149.284 142.254 149.284 125.852C149.284 109.449 135.997 96.1522 119.607 96.1522C103.217 96.1522 89.9304 109.449 89.9304 125.852C89.9304 142.254 103.217 155.551 119.607 155.551Z" fill="#5AED8E"/>
<path opacity="0.2" d="M119.607 146.767C131.149 146.767 140.506 137.403 140.506 125.852C140.506 114.301 131.149 104.937 119.607 104.937C108.065 104.937 98.7081 114.301 98.7081 125.852C98.7081 137.403 108.065 146.767 119.607 146.767Z" fill="#5AED8E"/>
<path d="M119.607 139.656C127.225 139.656 133.401 133.476 133.401 125.852C133.401 118.228 127.225 112.048 119.607 112.048C111.989 112.048 105.814 118.228 105.814 125.852C105.814 133.476 111.989 139.656 119.607 139.656Z" fill="#5AED8E"/>
<path d="M122.115 122.874C122.115 122.451 122.008 122.034 121.804 121.663C121.6 121.292 121.305 120.979 120.948 120.752C120.59 120.526 120.181 120.394 119.758 120.368C119.336 120.343 118.914 120.425 118.531 120.607C118.149 120.788 117.819 121.064 117.572 121.408C117.324 121.751 117.168 122.152 117.117 122.573C117.067 122.993 117.123 123.42 117.281 123.813C117.44 124.205 117.695 124.552 118.023 124.819L117.099 131.29H122.115L121.191 124.819C121.48 124.584 121.713 124.288 121.873 123.951C122.033 123.615 122.115 123.247 122.115 122.874Z" fill="white"/>
<path d="M258.228 19.7873C258.228 19.7873 249.955 12.3644 238.829 26.3538C227.703 40.3433 210.301 47.1953 206.307 52.6197C206.307 52.6197 222.853 45.7678 228.559 42.9128C234.264 40.0578 233.979 40.6288 233.979 40.6288C233.979 40.6288 226.276 46.0533 224.85 51.4777C223.424 56.9022 224.565 61.4702 221.997 66.8947C219.43 72.3192 271.065 70.6062 271.065 70.6062C271.065 70.6062 276.2 61.7557 274.774 52.6198C273.348 43.4838 274.203 20.9293 258.228 19.7873Z" fill="#2F2E41"/>
<path d="M242.58 43.1394C242.58 43.1394 244.379 55.7419 236.669 58.571C228.959 61.4002 231.786 65.2581 231.786 65.2581L243.351 70.9164L255.687 67.0585L259.799 60.8858C259.799 60.8858 253.117 59.3426 254.916 54.7131C256.715 50.0836 257.229 48.5404 257.229 48.5404L242.58 43.1394Z" fill="#FFB9B9"/>
<path opacity="0.1" d="M242.58 43.1394C242.58 43.1394 244.379 55.7419 236.669 58.571C228.959 61.4002 231.786 65.2581 231.786 65.2581L243.351 70.9164L255.687 67.0585L259.799 60.8858C259.799 60.8858 253.117 59.3426 254.916 54.7131C256.715 50.0836 257.229 48.5404 257.229 48.5404L242.58 43.1394Z" fill="black"/>
<path d="M274.961 79.1466C274.961 79.1466 273.162 102.809 273.676 103.837C274.19 104.866 273.676 140.616 273.676 140.616C273.676 140.616 277.274 159.906 272.648 160.934C268.022 161.963 269.05 139.33 269.05 139.33L264.424 109.496L264.938 79.9182L274.961 79.1466Z" fill="#FFB9B9"/>
<path opacity="0.1" d="M274.961 79.1466C274.961 79.1466 273.162 102.809 273.676 103.837C274.19 104.866 273.676 140.616 273.676 140.616C273.676 140.616 277.274 159.906 272.648 160.934C268.022 161.963 269.05 139.33 269.05 139.33L264.424 109.496L264.938 79.9182L274.961 79.1466Z" fill="black"/>
<path d="M224.847 150.39C224.847 150.39 216.366 182.539 216.623 198.228C216.88 213.917 220.221 235.778 220.221 235.778C220.221 235.778 220.735 245.294 219.964 246.323C219.193 247.352 223.819 251.724 223.819 251.724L228.702 248.895L230.501 246.837V245.037C230.501 245.037 227.674 236.293 229.987 229.348C232.3 222.404 233.585 204.915 231.272 199.514L247.206 152.19L224.847 150.39Z" fill="#FFB9B9"/>
<path d="M224.333 247.609C224.333 247.609 221.249 243.751 219.193 245.037C217.137 246.323 213.796 255.068 213.796 255.068C213.796 255.068 202.231 266.127 210.455 266.642C218.679 267.156 222.277 264.327 223.305 262.269C224.333 260.212 233.842 254.811 233.842 254.811C233.842 254.811 232.814 245.037 231.272 244.78C229.73 244.523 227.417 248.638 227.417 248.638L224.333 247.609Z" fill="#2F2E41"/>
<path d="M252.86 152.447V184.339C252.889 188.209 253.147 192.074 253.631 195.913C254.402 201.571 249.262 243.751 249.262 243.751L249.776 251.21L256.201 250.695L256.972 244.266L266.223 215.974C266.223 215.974 269.307 198.742 267.765 192.312C266.223 185.882 275.732 144.731 275.732 144.731L252.86 152.447Z" fill="#FFB9B9"/>
<path d="M247.72 249.409L249.623 248.995C249.623 248.995 251.061 245.809 252.86 246.58C254.125 247.165 255.325 247.884 256.437 248.725L257.229 250.181C257.229 250.181 259.027 254.039 261.34 256.611C263.653 259.183 266.223 264.841 262.368 265.355C258.513 265.87 253.374 266.127 251.832 264.841C250.29 263.555 251.318 261.498 249.776 260.983C248.234 260.469 246.949 258.926 247.206 258.411C247.463 257.897 247.72 249.409 247.72 249.409Z" fill="#2F2E41"/>
<path d="M252.86 51.9981C259.168 51.9981 264.281 46.8804 264.281 40.5674C264.281 34.2544 259.168 29.1367 252.86 29.1367C246.551 29.1367 241.438 34.2544 241.438 40.5674C241.438 46.8804 246.551 51.9981 252.86 51.9981Z" fill="#FFB9B9"/>
<path d="M231.272 60.6286L234.666 59.4425C234.666 59.4425 233.328 61.6574 240.524 62.9434C247.72 64.2293 255.172 64.6846 258.513 60.4704C258.513 60.4704 259.798 59.857 261.597 61.6574C263.396 63.4577 264.424 62.9434 264.424 62.9434L263.139 69.6304L260.569 81.9758L257.229 91.2348L247.72 89.1772L237.44 81.7185L233.585 71.688V62.4289L231.272 60.6286Z" fill="#5AED8E"/>
<path d="M262.625 64.2293L265.195 62.429C265.195 62.429 273.933 63.9721 274.447 68.0872L267.765 80.947C269.128 84.5252 269.036 88.4954 267.508 92.0063C264.938 97.9218 265.195 99.2078 265.195 99.2078L263.396 106.924L230.758 109.496C230.758 109.496 229.473 106.409 228.959 105.895C228.445 105.38 228.445 103.58 228.959 103.58C229.473 103.58 228.959 102.809 228.445 102.037C227.931 101.265 227.674 101.008 228.445 99.9794C229.216 98.9506 227.16 89.6916 227.16 89.6916V79.661L218.422 68.0872C218.422 68.0872 221.506 63.4577 223.048 62.9433C224.59 62.429 231.925 60.4004 231.925 60.4004L233.585 62.8461L235.898 81.4613L239.239 92.7779L253.306 90.3859L258.77 81.2041L262.368 70.402L262.625 64.2293Z" fill="#5AED8E"/>
<path d="M272.391 66.5441L274.447 68.0872C274.447 68.0872 276.246 82.4901 275.732 83.5189C275.218 84.5477 266.223 85.5765 265.966 85.0621C265.709 84.5477 272.391 66.5441 272.391 66.5441Z" fill="#5AED8E"/>
<path d="M229.987 59.3426L232.557 76.3175C232.557 76.3175 230.244 101.523 230.758 106.666L231.272 108.21C231.272 108.21 230.244 107.695 229.987 108.724C229.73 109.753 229.987 113.096 229.987 113.096C229.987 113.096 228.445 114.639 227.931 123.127C227.417 131.614 221.249 151.933 223.562 152.704C225.875 153.476 239.753 157.334 247.206 156.562C254.659 155.791 281.386 146.789 281.129 144.474C280.872 142.159 268.022 109.496 268.022 109.496C268.022 109.496 265.709 105.638 265.709 105.123C265.709 104.609 268.793 102.551 268.022 100.494C267.251 98.4362 263.139 76.8319 263.139 76.8319L265.966 61.4002L262.111 60.3714L259.284 75.2887C259.284 75.2887 248.234 80.6898 236.669 75.8031L234.099 58.3138L229.987 59.3426Z" fill="#2F2E41"/>
<path d="M242.352 32.364C242.352 32.364 261.37 45.4809 266.51 39.5654C271.649 33.6499 257.515 28.506 257.515 28.506L245.693 27.2201L242.352 32.364Z" fill="#2F2E41"/>
<path d="M212.803 171.902C214.76 173.36 217.182 174.054 219.614 173.853C222.046 173.652 224.321 172.57 226.014 170.811C227.706 169.051 228.699 166.734 228.806 164.295C228.913 161.855 228.128 159.46 226.597 157.558C225.066 155.656 222.895 154.379 220.49 153.965C218.085 153.55 215.611 154.028 213.533 155.309C211.455 156.589 209.915 158.584 209.202 160.919C208.488 163.255 208.65 165.77 209.658 167.995L183.428 189.851L179.936 185.702L178.367 186.753L176.621 184.679L178.055 183.469L176.309 181.395L174.077 183.277L175.152 184.553L172.76 186.57L171.686 185.293L168.179 188.251L169.791 190.165L171.066 189.09L172.812 191.164L171.218 192.508L174.442 196.337L170.616 199.563L174.511 204.19L212.803 171.902ZM219.352 157.24C220.659 157.352 221.904 157.849 222.929 158.669C223.953 159.489 224.712 160.594 225.109 161.846C225.506 163.097 225.524 164.438 225.159 165.699C224.795 166.961 224.065 168.085 223.061 168.931C222.058 169.777 220.827 170.307 219.523 170.452C218.219 170.598 216.901 170.353 215.736 169.749C214.571 169.145 213.611 168.209 212.978 167.06C212.345 165.91 212.066 164.598 212.178 163.29C212.328 161.535 213.168 159.912 214.513 158.778C215.858 157.644 217.599 157.09 219.352 157.24V157.24Z" fill="#5AED8E"/>
<path d="M216.623 82.233C216.623 82.233 218.422 105.895 217.908 106.924C217.394 107.952 217.908 143.702 217.908 143.702C217.908 143.702 214.31 162.992 218.936 164.021C223.562 165.05 222.534 142.416 222.534 142.416L227.16 112.582L226.646 83.0045L216.623 82.233Z" fill="#FFB9B9"/>
<path d="M220.478 67.3157L218.422 68.0872C218.422 68.0872 214.567 84.2905 215.595 84.2905C216.623 84.2905 228.959 85.8337 228.959 85.3193C228.959 84.8049 226.646 72.2023 226.646 72.2023L220.478 67.3157Z" fill="#5AED8E"/>
</g>
<defs>
<clipPath id="clip0">
<rect width="375" height="270" fill="white"/>
</clipPath>
</defs>
</svg>
